<?xml version="1.0" encoding="utf-8"?>
<!DOCTYPE svg PUBLIC "-//W3C//DTD SVG 20010904//EN" "http://www.w3.org/TR/2001/REC-SVG-20010904/DTD/svg10.dtd">
<svg version="1.0" width="960pt" height="321.75pt" viewBox="0 0 960 321.75" preserveAspectRatio="xMidYMid meet" xmlns="http://www.w3.org/2000/svg">
  <g transform="translate(0,321.75)scale(.075,.075)">
    <path id="path1" d="M 0 -2145 l 0 2145 6400 0 6400 0 0 -2145 0 -2145 -6400 0 -6400 0 0 2145 z " />
    <path id="path2" d="M 2010 -2250 l 0 510 230 0 230 0 0 170 0 170 -445 0 -445 0 0 -680 0 -680 215 0 215 0 0 510 z m 5240 -265 l 0 245 220 0 220 0 0 -245 0 -245 215 0 215 0 0 680 0 680 -215 0 -215 0 0 -250 0 -250 -220 0 -220 0 0 250 0 250 -215 0 -215 0 0 -680 0 -680 215 0 215 0 0 245 z m -3938 143 c 139 39 252 136 317 271 33 72 35 79 35 190 1 179 -39 285 -144 385 -93 89 -190 128 -351 141 -206 16 -363 -30 -478 -140 -101 -96 -141 -199 -141 -365 0 -54 7 -122 15 -155 45 -171 196 -304 388 -341 93 -18 269 -11 359 14 z m 1022 -4 c 20 8 52 27 71 42 l 35 26 0 -36 0 -36 211 0 211 0 -5 482 c -3 414 -6 492 -21 542 -41 143 -136 256 -276 325 -117 57 -191 71 -390 71 -157 0 -269 -15 -292 -38 -10 -10 -23 -294 -15 -315 5 -12 20 -9 94 21 83 35 94 37 198 36 80 0 120 -5 146 -17 81 -37 129 -99 144 -187 l 8 -45 -34 28 c -19 15 -63 42 -99 60 -60 29 -73 32 -160 32 -122 -1 -194 -31 -270 -111 -92 -97 -137 -246 -126 -415 15 -238 143 -424 325 -476 57 -16 195 -10 245 11 z m 1420 1 c 86 23 153 62 222 130 105 103 152 234 140 387 -12 147 -57 248 -148 335 -121 114 -297 159 -527 134 -211 -23 -376 -157 -426 -346 -19 -76 -19 -234 0 -310 45 -171 196 -304 388 -341 88 -17 266 -11 351 11 z m 3177 -11 c 167 36 282 141 326 300 7 28 16 111 20 184 l 6 132 -297 0 c -163 0 -296 4 -296 8 0 11 60 67 88 82 66 33 233 29 344 -9 l 56 -19 6 21 c 8 30 6 163 -2 211 -7 36 -11 41 -62 60 -49 18 -78 20 -275 21 l -220 0 -78 -38 c -133 -65 -222 -176 -247 -306 -15 -78 -12 -216 5 -290 62 -263 335 -418 626 -357 z m 1944 8 c 112 28 223 120 274 228 24 51 26 68 29 211 l 4 156 -93 6 c -51 4 -177 7 -280 7 -123 0 -190 4 -194 11 -10 15 33 59 80 80 61 28 209 26 314 -4 l 81 -24 5 31 c 3 17 5 78 3 136 l -3 105 -90 23 c -186 46 -423 36 -553 -23 -68 -31 -165 -124 -197 -189 -73 -150 -71 -372 6 -515 66 -125 217 -234 346 -251 67 -9 210 -3 268 12 z m -741 4 c 8 21 8 283 0 323 -5 25 -11 31 -23 25 -9 -3 -48 -9 -88 -11 -64 -5 -76 -3 -116 20 -77 46 -81 63 -85 359 l -4 258 -209 0 -209 0 0 -490 0 -490 210 0 210 0 0 60 c 0 33 2 60 5 60 3 0 22 -18 42 -41 57 -63 112 -87 204 -88 43 -1 58 3 63 15 z " fill="#FFF" />
    <path id="path3" d="M 3042 -2077 c -63 30 -95 208 -54 300 36 81 116 109 182 64 58 -38 74 -77 73 -181 0 -105 -15 -146 -66 -176 -35 -22 -98 -25 -135 -7 z " />
    <path id="path4" d="M 4275 -2081 c -55 24 -88 99 -88 201 0 117 46 190 121 190 78 0 132 -69 140 -179 8 -124 -36 -208 -113 -216 -22 -3 -49 -1 -60 4 z " />
    <path id="path5" d="M 5476 -2060 c -46 41 -59 85 -54 184 5 93 24 138 71 166 63 39 139 16 177 -51 18 -34 22 -56 22 -127 0 -104 -17 -153 -64 -182 -51 -31 -110 -27 -152 10 z " />
    <path id="path6" d="M 8752 -2124 c -24 16 -62 83 -62 109 0 13 18 15 110 15 123 0 122 1 94 -70 -25 -63 -93 -89 -142 -54 z " />
    <path id="path7" d="M 10670 -2127 c -27 13 -76 100 -65 117 4 6 47 10 106 10 79 0 101 -3 105 -15 17 -44 -43 -125 -93 -125 -15 0 -39 6 -53 13 z " />
  </g>
</svg>